<svg width="100" height="100" viewBox="0 0 100 100" fill="none" xmlns="http://www.w3.org/2000/svg">
<path d="M43.75 18.75L46.875 12.5L53.125 9.375L46.875 6.25L43.75 0L40.625 6.25L34.375 9.375L40.625 12.5L43.75 18.75ZM15.625 31.25L20.832 20.834L31.25 15.625L20.832 10.416L15.625 0L10.418 10.416L0 15.625L10.418 20.834L15.625 31.25ZM84.375 56.25L79.168 66.666L68.75 71.875L79.168 77.084L84.375 87.5L89.582 77.084L100 71.875L89.582 66.666L84.375 56.25ZM98.168 18.4043L81.5957 1.83203C80.377 0.609375 78.7773 0 77.1777 0C75.5781 0 73.9785 0.609375 72.7578 1.83203L1.83203 72.7578C-0.609375 75.1992 -0.609375 79.1562 1.83203 81.5957L18.4043 98.168C19.625 99.3887 21.2246 99.998 22.8223 99.998C24.4219 99.998 26.0215 99.3887 27.2422 98.168L98.168 27.2402C100.609 24.8027 100.609 20.8438 98.168 18.4043ZM70.2051 39.7383L60.2617 29.7949L77.1758 12.8809L87.1191 22.8242L70.2051 39.7383Z" fill="white"/>
</svg>
