<svg width="80" height="107" viewBox="0 0 80 107" fill="none" xmlns="http://www.w3.org/2000/svg">
<path d="M46.6667 28.3333V0H5C2.22917 0 0 2.22917 0 5V101.667C0 104.437 2.22917 106.667 5 106.667H75C77.7708 106.667 80 104.437 80 101.667V33.3333H51.6667C48.9167 33.3333 46.6667 31.0833 46.6667 28.3333ZM60 77.5C60 78.875 58.875 80 57.5 80H22.5C21.125 80 20 78.875 20 77.5V75.8333C20 74.4583 21.125 73.3333 22.5 73.3333H57.5C58.875 73.3333 60 74.4583 60 75.8333V77.5ZM60 64.1666C60 65.5416 58.875 66.6666 57.5 66.6666H22.5C21.125 66.6666 20 65.5416 20 64.1666V62.5C20 61.125 21.125 60 22.5 60H57.5C58.875 60 60 61.125 60 62.5V64.1666ZM60 49.1667V50.8333C60 52.2083 58.875 53.3333 57.5 53.3333H22.5C21.125 53.3333 20 52.2083 20 50.8333V49.1667C20 47.7917 21.125 46.6667 22.5 46.6667H57.5C58.875 46.6667 60 47.7917 60 49.1667ZM80 25.3958V26.6667H53.3333V0H54.6042C55.9375 0 57.2083 0.520833 58.1458 1.45833L78.5417 21.875C79.4792 22.8125 80 24.0833 80 25.3958Z" fill="white"/>
</svg>
