<svg width="92" height="100" viewBox="0 0 92 100" fill="none" xmlns="http://www.w3.org/2000/svg">
<path d="M48.2266 41.3281C43.3242 45.957 40.2578 52.5195 40.2578 59.8047C40.2578 65.5273 42.1524 70.8008 45.336 75.0391L35.668 84.7656C34.8086 84.4531 33.8907 84.2773 32.9336 84.2773C30.8242 84.2773 28.8516 85.0977 27.3672 86.582C25.8828 88.0664 25.0625 90.0586 25.0625 92.168C25.0625 94.2773 25.8828 96.25 27.3672 97.7344C28.8516 99.2188 30.8438 100 32.9336 100C35.043 100 37.0157 99.2383 38.5196 97.7344C40.0039 96.25 40.8242 94.2578 40.8242 92.168C40.8242 91.3477 40.7071 90.5664 40.4532 89.8047L50.2188 80C54.5157 83.3008 59.8672 85.2539 65.7071 85.2539C79.75 85.2539 91.0977 73.8672 91.0977 59.8242C91.0977 47.0898 81.7813 36.543 69.5742 34.6875V22.6562C72.9922 21.2109 75.0821 18.0078 75.0821 14.2773C75.0821 9.17969 71 4.92188 65.9024 4.92188C60.8047 4.92188 56.7813 9.17969 56.7813 14.2773C56.7813 18.0078 58.8711 21.2109 62.2891 22.6562V34.6094C59.3203 35.0195 56.5078 35.918 53.9492 37.2656C48.5586 33.1836 31 20.5273 20.961 12.8906C21.1953 12.0312 21.3516 11.1328 21.3516 10.1953C21.3516 4.57031 16.7617 0 11.1172 0C5.49222 0 0.921906 4.57031 0.921906 10.1953C0.921906 15.8398 5.49222 20.4102 11.1172 20.4102C13.0313 20.4102 14.8086 19.8438 16.3516 18.9258L48.2266 41.3281ZM65.7071 73.2812C58.2656 73.2812 52.2305 67.2461 52.2305 59.8047C52.2305 52.3633 58.2656 46.3281 65.7071 46.3281C73.1485 46.3281 79.1836 52.3633 79.1836 59.8047C79.1836 67.2461 73.1485 73.2812 65.7071 73.2812Z" fill="white"/>
</svg>
