<svg width="100" height="100" viewBox="0 0 100 100" fill="none" xmlns="http://www.w3.org/2000/svg">
<path d="M97.8711 77.2852L75.0001 54.4141C70.4883 49.9023 63.7501 49.0234 58.3204 51.6992L37.5001 30.8789V18.75L12.5001 0L6.08852e-05 12.5L18.7501 37.5H30.879L51.6993 58.3203C49.043 63.75 49.9024 70.4883 54.4141 75L77.2852 97.8711C80.1368 100.723 84.7461 100.723 87.5782 97.8711L97.8711 87.5781C100.703 84.7266 100.703 80.1172 97.8711 77.2852ZM64.7852 43.9453C70.3126 43.9453 75.5079 46.0938 79.4141 50L83.2032 53.7891C86.2891 52.4414 89.2188 50.5664 91.7579 48.0273C99.004 40.7812 101.465 30.5859 99.1602 21.3281C98.7305 19.5703 96.5235 18.9648 95.2344 20.2539L80.7032 34.7852L67.4415 32.5781L65.2344 19.3164L79.7657 4.78516C81.0547 3.49609 80.4297 1.28906 78.6524 0.839844C69.3946 -1.44531 59.1993 1.01563 51.9727 8.24219C46.4063 13.8086 43.7891 21.1523 43.9258 28.4766L59.961 44.5117C61.543 44.1406 63.1837 43.9453 64.7852 43.9453ZM44.4922 59.9609L33.418 48.8867L3.6524 78.6719C-1.23041 83.5547 -1.23041 91.4648 3.6524 96.3477C8.53522 101.23 16.4454 101.23 21.3282 96.3477L45.4688 72.207C43.9844 68.3203 43.5352 64.082 44.4922 59.9609ZM12.5001 92.1875C9.92194 92.1875 7.81256 90.0781 7.81256 87.5C7.81256 84.9023 9.9024 82.8125 12.5001 82.8125C15.0977 82.8125 17.1876 84.9023 17.1876 87.5C17.1876 90.0781 15.0977 92.1875 12.5001 92.1875Z" fill="white"/>
</svg>
