<svg width="100" height="88" viewBox="0 0 100 88" fill="none" xmlns="http://www.w3.org/2000/svg">
<path d="M93.75 25.25H6.25C2.79824 25.25 0 22.4518 0 19V6.5C0 3.04824 2.79824 0.25 6.25 0.25H93.75C97.2018 0.25 100 3.04824 100 6.5V19C100 22.4518 97.2018 25.25 93.75 25.25ZM84.375 8.0625C81.7861 8.0625 79.6875 10.1611 79.6875 12.75C79.6875 15.3389 81.7861 17.4375 84.375 17.4375C86.9639 17.4375 89.0625 15.3389 89.0625 12.75C89.0625 10.1611 86.9639 8.0625 84.375 8.0625ZM71.875 8.0625C69.2861 8.0625 67.1875 10.1611 67.1875 12.75C67.1875 15.3389 69.2861 17.4375 71.875 17.4375C74.4639 17.4375 76.5625 15.3389 76.5625 12.75C76.5625 10.1611 74.4639 8.0625 71.875 8.0625ZM93.75 56.5H6.25C2.79824 56.5 0 53.7018 0 50.25V37.75C0 34.2982 2.79824 31.5 6.25 31.5H93.75C97.2018 31.5 100 34.2982 100 37.75V50.25C100 53.7018 97.2018 56.5 93.75 56.5ZM84.375 39.3125C81.7861 39.3125 79.6875 41.4111 79.6875 44C79.6875 46.5889 81.7861 48.6875 84.375 48.6875C86.9639 48.6875 89.0625 46.5889 89.0625 44C89.0625 41.4111 86.9639 39.3125 84.375 39.3125ZM71.875 39.3125C69.2861 39.3125 67.1875 41.4111 67.1875 44C67.1875 46.5889 69.2861 48.6875 71.875 48.6875C74.4639 48.6875 76.5625 46.5889 76.5625 44C76.5625 41.4111 74.4639 39.3125 71.875 39.3125ZM93.75 87.75H6.25C2.79824 87.75 0 84.9518 0 81.5V69C0 65.5482 2.79824 62.75 6.25 62.75H93.75C97.2018 62.75 100 65.5482 100 69V81.5C100 84.9518 97.2018 87.75 93.75 87.75ZM84.375 70.5625C81.7861 70.5625 79.6875 72.6611 79.6875 75.25C79.6875 77.8389 81.7861 79.9375 84.375 79.9375C86.9639 79.9375 89.0625 77.8389 89.0625 75.25C89.0625 72.6611 86.9639 70.5625 84.375 70.5625ZM71.875 70.5625C69.2861 70.5625 67.1875 72.6611 67.1875 75.25C67.1875 77.8389 69.2861 79.9375 71.875 79.9375C74.4639 79.9375 76.5625 77.8389 76.5625 75.25C76.5625 72.6611 74.4639 70.5625 71.875 70.5625Z" fill="white"/>
</svg>
