<svg width="100" height="79" viewBox="0 0 100 79" fill="none" xmlns="http://www.w3.org/2000/svg">
<path d="M83.3333 67.2223V70.0001C83.3333 74.6025 79.6024 78.3334 75 78.3334H8.33333C3.7309 78.3334 0 74.6025 0 70.0001V25.5557C0 20.9532 3.7309 17.2223 8.33333 17.2223H11.1111V53.3334C11.1111 60.9918 17.3417 67.2223 25 67.2223H83.3333ZM100 53.3334V8.889C100 4.28657 96.2691 0.555664 91.6667 0.555664H25C20.3976 0.555664 16.6667 4.28657 16.6667 8.889V53.3334C16.6667 57.9359 20.3976 61.6668 25 61.6668H91.6667C96.2691 61.6668 100 57.9359 100 53.3334ZM44.4444 17.2223C44.4444 21.8248 40.7135 25.5557 36.1111 25.5557C31.5087 25.5557 27.7778 21.8248 27.7778 17.2223C27.7778 12.6199 31.5087 8.889 36.1111 8.889C40.7135 8.889 44.4444 12.6199 44.4444 17.2223ZM27.7778 42.2223L37.4158 32.5843C38.2293 31.7708 39.5484 31.7708 40.3621 32.5843L47.2222 39.4445L70.7491 15.9176C71.5627 15.1041 72.8818 15.1041 73.6955 15.9176L88.8889 31.1112V50.5557H27.7778V42.2223Z" fill="white"/>
</svg>
